<?xml version="1.0" standalone="no"?>
<!DOCTYPE svg PUBLIC "-//W3C//DTD SVG 20010904//EN"
 "http://www.w3.org/TR/2001/REC-SVG-20010904/DTD/svg10.dtd">
<svg version="1.0" xmlns="http://www.w3.org/2000/svg"
 width="500.000000pt" height="500.000000pt" viewBox="0 0 500.000000 500.000000"
 preserveAspectRatio="xMidYMid meet">
<metadata>
Created by potrace 1.13, written by Peter Selinger 2001-2015
</metadata>

<g transform="translate(0.000000,500.000000) scale(0.100000,-0.100000)"
fill="#1565a1" stroke="none">
<path d="M1235 3864 c9 -21 22 -46 30 -54 8 -9 13 -19 10 -22 -3 -3 15 -49 40
-102 25 -52 45 -100 45 -106 0 -5 17 -10 38 -10 43 0 585 -27 706 -35 44 -3
78 -3 75 -1 -11 11 -163 64 -171 60 -4 -3 -8 -1 -8 3 0 9 -94 46 -117 46 -7 0
-13 5 -13 10 0 5 -7 7 -15 3 -8 -3 -15 -2 -15 2 0 13 -95 43 -116 36 -14 -4
-15 -3 -5 4 10 7 0 14 -40 28 -30 10 -58 19 -64 19 -5 0 -12 3 -15 7 -11 14
-274 109 -287 103 -8 -2 -12 -1 -9 4 3 5 -8 14 -25 20 -29 10 -31 9 -26 -9 3
-11 1 -18 -4 -14 -5 3 -9 11 -9 19 0 8 -5 17 -11 20 -5 4 -3 -10 6 -31z"/>
<path d="M2815 3809 c-27 -21 -76 -57 -108 -79 -32 -22 -64 -45 -70 -51 -7 -6
-54 -40 -106 -77 -52 -37 -96 -73 -99 -80 -2 -8 11 -12 45 -12 26 0 187 -7
357 -15 170 -9 311 -14 313 -11 5 5 -18 37 -162 230 -55 74 -104 135 -110 135
-5 0 -32 -18 -60 -40z"/>
<path d="M2950 3842 c0 -5 10 -17 22 -28 20 -18 21 -18 15 -1 -4 11 -3 16 4
12 6 -4 8 -13 5 -21 -6 -17 49 -99 67 -99 7 -1 11 -7 9 -14 -4 -18 18 -42 31
-34 5 3 7 2 4 -4 -8 -13 21 -53 39 -53 8 0 17 -7 21 -16 3 -9 12 -13 22 -9 13
5 14 4 3 -7 -11 -11 -16 -10 -28 6 -8 11 -14 16 -14 12 0 -4 14 -28 32 -52 22
-31 37 -43 47 -38 9 3 30 8 48 10 17 2 44 9 60 16 15 6 33 10 40 9 18 -3 196
39 208 49 7 6 14 7 18 4 3 -3 43 4 89 15 46 11 128 30 183 42 55 11 105 25
111 30 6 5 13 6 16 3 5 -5 114 19 148 33 16 6 31 9 73 11 19 1 26 6 21 14 -4
7 -3 8 5 4 12 -8 118 11 136 23 6 4 23 8 39 9 16 1 37 9 46 17 9 8 21 15 26
15 5 0 2 -5 -6 -11 -12 -8 -10 -10 10 -5 14 2 42 8 62 11 21 4 36 10 34 14 -2
3 10 7 27 8 18 0 61 8 97 16 59 14 -13 15 -852 16 -505 1 -918 -3 -918 -7z"/>
<path d="M432 3559 c2 -6 47 -56 100 -112 53 -56 131 -140 174 -187 43 -47 82
-84 87 -82 5 1 6 -2 3 -7 -8 -12 18 -33 29 -23 5 4 5 2 2 -4 -4 -7 0 -17 8
-24 12 -10 19 -10 33 1 15 12 16 12 4 -2 -13 -18 2 -40 95 -138 23 -24 63 -68
88 -97 26 -29 50 -52 55 -51 4 1 7 -1 7 -4 -4 -14 38 -49 51 -44 13 5 13 3 1
-12 -12 -15 -12 -16 4 -10 11 4 16 3 12 -3 -8 -14 115 -141 128 -133 6 4 7 1
2 -6 -8 -15 103 -133 117 -125 5 3 7 2 6 -3 -6 -18 41 -65 58 -59 13 5 14 4 6
-7 -9 -10 -4 -21 21 -45 18 -18 37 -29 42 -25 4 5 5 2 1 -4 -10 -17 79 -112
92 -98 24 25 122 227 116 237 -4 6 -3 8 3 5 13 -8 36 41 27 55 -4 6 -3 8 3 5
13 -8 56 70 47 85 -4 6 -3 8 3 5 14 -9 25 20 18 47 -5 15 -4 17 3 7 8 -11 13
-7 26 18 9 17 14 31 11 31 -2 0 2 9 11 19 27 31 167 305 166 324 0 9 3 15 7
13 9 -6 66 100 66 122 0 7 5 16 12 20 6 4 37 56 69 116 57 108 57 109 31 104
-15 -3 -27 -2 -27 2 0 8 -331 25 -488 25 -50 0 -92 4 -92 8 0 4 -33 8 -72 8
-113 0 -301 7 -318 13 -25 8 -548 29 -559 22 -5 -4 -13 -1 -16 4 -4 7 -41 10
-96 9 -49 -1 -92 1 -96 5 -11 11 -85 7 -81 -5z"/>
<path d="M2354 3458 c-6 -7 -25 -42 -44 -78 -18 -36 -63 -121 -100 -190 -62
-116 -110 -206 -245 -465 -29 -55 -71 -136 -95 -180 -23 -44 -73 -140 -112
-213 l-70 -132 36 -40 c19 -22 43 -48 53 -58 28 -29 252 -269 323 -347 36 -38
98 -105 138 -147 l74 -77 235 232 c129 128 279 275 333 327 l100 96 14 89 c7
50 44 266 81 480 37 215 71 415 75 445 18 115 30 186 35 207 5 20 0 22 -68 27
-39 3 -173 10 -297 16 -124 5 -277 13 -340 16 -91 5 -118 3 -126 -8z"/>
<path d="M1750 2006 c-6 -20 -9 -40 -6 -43 3 -4 2 -11 -3 -17 -12 -17 -32
-106 -26 -117 4 -5 2 -9 -3 -9 -7 0 -41 -123 -48 -175 -1 -11 -7 -33 -13 -48
-6 -15 -10 -31 -9 -35 1 -4 -1 -14 -5 -22 -7 -20 -69 -278 -72 -299 -1 -9 -5
-25 -10 -36 -5 -11 -10 -39 -10 -62 0 -22 -2 -37 -5 -32 -4 5 -27 -79 -54
-186 -26 -107 -44 -199 -41 -205 3 -5 2 -10 -3 -10 -5 0 -12 -9 -15 -21 -3
-13 -1 -19 6 -16 7 3 11 10 9 16 -1 7 1 10 6 7 12 -7 84 68 75 78 -5 4 -3 6 3
4 12 -4 110 93 106 105 -1 5 1 6 6 3 4 -3 49 37 99 87 49 51 101 101 114 113
13 12 31 30 40 40 10 10 53 52 98 93 44 40 78 77 75 82 -3 5 0 8 8 7 7 -2 12
3 10 10 -1 8 1 11 5 9 5 -3 26 14 48 36 22 22 34 37 26 32 -10 -5 -12 -4 -7 4
4 6 11 9 15 7 4 -3 30 17 56 44 44 44 49 55 22 51 -4 0 -6 3 -5 8 4 14 -184
211 -195 204 -6 -3 -7 -1 -3 5 4 7 -17 36 -50 69 -31 32 -63 68 -71 80 -8 13
-20 20 -26 16 -5 -3 -7 -2 -4 4 8 13 -68 87 -82 79 -6 -4 -9 -1 -5 7 3 8 -6
27 -19 43 l-24 28 -13 -38z"/>
</g>


</svg>
